<?xml version="1.0" encoding="utf-8"?>
<!-- Generator: Adobe Illustrator 27.3.1, SVG Export Plug-In . SVG Version: 6.00 Build 0)  -->
<svg version="1.1" id="Layer_1" xmlns="http://www.w3.org/2000/svg" xmlns:xlink="http://www.w3.org/1999/xlink" x="0px" y="0px"
	 viewBox="0 0 148 148" style="enable-background:new 0 0 148 148;" xml:space="preserve">
<style type="text/css">
	.st0{fill-rule:evenodd;clip-rule:evenodd;fill:#119D60;}
</style>
<path class="st0" d="M8.2,87L8.2,87c1.8,2.5,4.7,4.1,8,4.1c3.3,0,6.2-1.6,8-4.1h0c2.2-4.2,6.5-7,11.4-7c5,0,9.3,2.8,11.4,7H47
	c1.8,2.5,4.7,4.1,8,4.1c3.3,0,6.1-1.6,8-4.1h0c2.2-4.2,6.4-7,11.4-7c4.9,0,9.2,2.8,11.4,7h0c1.8,2.5,4.7,4.1,8,4.1
	c3.3,0,6.2-1.6,8-4.1h0c2.2-4.2,6.5-7,11.4-7c5,0,9.3,2.8,11.4,7h0c1.8,2.5,4.7,4.1,8,4.1c3.3,0,6.1-1.6,8-4.1h0
	c1.5-2.9,4.1-5.2,7.2-6.3c-0.1,1.1-0.2,2.2-0.4,3.3c-1.3,0.7-2.5,1.7-3.4,2.9h0c-2.1,4.2-6.4,7-11.3,7s-9.2-2.8-11.3-7h0
	c-1.8-2.5-4.8-4.1-8-4.1c-3.3,0-6.2,1.6-8,4.1h0c-2.2,4.2-6.4,7-11.4,7c-4.9,0-9.2-2.8-11.4-7h0c-1.8-2.5-4.7-4.1-8-4.1
	c-3.3,0-6.2,1.6-8,4.1h0c-2.1,4.2-6.4,7-11.3,7s-9.2-2.8-11.3-7h0c-1.8-2.5-4.8-4.1-8-4.1c-3.3,0-6.2,1.6-8,4.1h0
	c-2.2,4.2-6.4,7-11.4,7s-9.2-2.8-11.4-7h0c-1.1-1.4-2.5-2.6-4.1-3.3c-0.1-1.1-0.3-2.1-0.4-3.2C3.7,81.5,6.5,83.9,8.2,87z M143.9,67
	L143.9,67c-2.2,4.2-6.4,7-11.4,7s-9.2-2.8-11.3-7h0c-1.8-2.5-4.8-4.1-8-4.1c-3.3,0-6.2,1.6-8,4.1h0c-2.2,4.2-6.4,7-11.4,7
	c-4.9,0-9.2-2.8-11.4-7h0c-1.8-2.5-4.7-4.1-8-4.1c-3.3,0-6.2,1.6-8,4.1h0c-2.1,4.2-6.4,7-11.3,7s-9.2-2.8-11.3-7h0
	c-1.8-2.5-4.8-4.1-8-4.1c-3.3,0-6.2,1.6-8,4.1h0c-2.2,4.2-6.4,7-11.4,7s-9.2-2.8-11.4-7h0c-1-1.4-2.4-2.5-4.1-3.2c0.1-1,0.3-2,0.5-3
	c3,1.1,5.5,3.4,7,6.2h0c1.8,2.5,4.7,4.1,8,4.1c3.3,0,6.2-1.6,8-4.1h0c2.2-4.2,6.5-7,11.4-7c5,0,9.3,2.8,11.4,7H47
	c1.8,2.5,4.7,4.1,8,4.1c3.3,0,6.1-1.6,8-4.1h0c2.2-4.2,6.4-7,11.4-7c4.9,0,9.2,2.8,11.4,7h0c1.8,2.5,4.7,4.1,8,4.1
	c3.3,0,6.2-1.6,8-4.1h0c2.2-4.2,6.5-7,11.4-7c5,0,9.3,2.8,11.4,7h0c1.8,2.5,4.7,4.1,8,4.1c3.3,0,6.1-1.6,8-4.1h0
	c1.4-2.7,3.6-4.8,6.4-6c0.2,1,0.3,2,0.5,3C146,64.8,144.8,65.8,143.9,67z M8.2,107L8.2,107c1.8,2.5,4.7,4.1,8,4.1
	c3.3,0,6.2-1.6,8-4.1h0c2.2-4.2,6.5-7,11.4-7c5,0,9.3,2.8,11.4,7H47c1.8,2.5,4.7,4.1,8,4.1c3.3,0,6.1-1.6,8-4.1h0
	c2.2-4.2,6.4-7,11.4-7c4.9,0,9.2,2.8,11.4,7h0c1.8,2.5,4.7,4.1,8,4.1c3.3,0,6.2-1.6,8-4.1h0c2.2-4.2,6.5-7,11.4-7
	c5,0,9.3,2.8,11.4,7h0c1.8,2.5,4.7,4.1,8,4.1c2.9,0,5.5-1.3,7.3-3.3c-1,1.9-2,3.7-3.1,5.5c-1.3,0.5-2.7,0.7-4.2,0.7
	c-4.9,0-9.2-2.8-11.3-7h0c-1.8-2.5-4.8-4.1-8-4.1c-3.3,0-6.2,1.6-8,4.1h0c-2.2,4.2-6.4,7-11.4,7c-4.9,0-9.2-2.8-11.4-7h0
	c-1.8-2.5-4.7-4.1-8-4.1c-3.3,0-6.2,1.6-8,4.1h0c-2.1,4.2-6.4,7-11.3,7s-9.2-2.8-11.3-7h0c-1.8-2.5-4.8-4.1-8-4.1
	c-3.3,0-6.2,1.6-8,4.1h0c-2.2,4.2-6.4,7-11.4,7c-1.8,0-3.5-0.4-5.1-1.1c-1.6-2.6-3.1-5.3-4.4-8.1C7.3,105.5,7.7,106.2,8.2,107z
	 M132.5,54c-4.9,0-9.2-2.8-11.3-7h0c-1.8-2.5-4.8-4.1-8-4.1c-3.3,0-6.2,1.6-8,4.1h0c-2.2,4.2-6.4,7-11.4,7c-4.9,0-9.2-2.8-11.4-7h0
	c-1.8-2.5-4.7-4.1-8-4.1c-3.3,0-6.2,1.6-8,4.1h0c-2.1,4.2-6.4,7-11.3,7s-9.2-2.8-11.3-7h0c-1.8-2.5-4.8-4.1-8-4.1
	c-3.3,0-6.2,1.6-8,4.1h0c-2.2,4.2-6.4,7-11.4,7c-4.8,0-9-2.7-11.2-6.7c0.4-1,0.8-2.1,1.3-3.1C7,45.1,7.6,46,8.2,47h0
	c1.8,2.5,4.7,4.1,8,4.1c3.3,0,6.2-1.6,8-4.1h0c2.2-4.2,6.5-7,11.4-7c5,0,9.3,2.8,11.4,7H47c1.8,2.5,4.7,4.1,8,4.1
	c3.3,0,6.1-1.6,8-4.1h0c2.2-4.2,6.4-7,11.4-7c4.9,0,9.2,2.8,11.4,7h0c1.8,2.5,4.7,4.1,8,4.1c3.3,0,6.2-1.6,8-4.1h0
	c2.2-4.2,6.5-7,11.4-7c5,0,9.3,2.8,11.4,7h0c1.8,2.5,4.7,4.1,8,4.1c3.3,0,6.1-1.6,8-4.1h0c0.4-0.8,0.9-1.6,1.5-2.3
	c0.5,1.1,0.9,2.2,1.3,3.2C141,51.6,137,54,132.5,54z M24.2,127L24.2,127c2.2-4.2,6.5-7,11.5-7c5,0,9.3,2.8,11.4,7H47
	c1.8,2.5,4.7,4.1,8,4.1c3.3,0,6.1-1.6,8-4.1h0c2.2-4.2,6.4-7,11.4-7c4.9,0,9.2,2.8,11.4,7h0c1.8,2.5,4.7,4.1,8,4.1
	c3.3,0,6.2-1.6,8-4.1h0c2.2-4.2,6.5-7,11.4-7c5,0,9.3,2.8,11.4,7h0c0.1,0.2,0.3,0.4,0.5,0.6c-0.7,0.7-1.4,1.3-2.1,2
	c-0.7-0.8-1.2-1.6-1.7-2.5h0c-1.8-2.5-4.8-4.1-8-4.1c-3.3,0-6.2,1.6-8,4.1h0c-2.2,4.2-6.4,7-11.4,7c-4.9,0-9.2-2.8-11.4-7h0
	c-1.8-2.5-4.7-4.1-8-4.1c-3.3,0-6.2,1.6-8,4.1h0c-2.1,4.2-6.4,7-11.3,7s-9.2-2.8-11.3-7h0c-1.8-2.5-4.8-4.1-8-4.1
	c-3.3,0-6.2,1.6-8,4.1h0c-0.5,1.1-1.2,2-2,2.9c-0.7-0.6-1.4-1.3-2.2-1.9C23.7,127.6,23.9,127.3,24.2,127z M132.5,34
	c-4.9,0-9.2-2.8-11.3-7h0c-1.8-2.5-4.8-4.1-8-4.1c-3.3,0-6.2,1.6-8,4.1h0c-2.2,4.2-6.4,7-11.4,7c-4.9,0-9.2-2.8-11.4-7h0
	c-1.8-2.5-4.7-4.1-8-4.1c-3.3,0-6.2,1.6-8,4.1h0c-2.1,4.2-6.4,7-11.3,7s-9.2-2.8-11.3-7h0c-1.8-2.5-4.8-4.1-8-4.1
	c-3.3,0-6.2,1.6-8,4.1h0c-2.2,4.2-6.4,7-11.4,7c-1.4,0-2.7-0.2-4-0.7c0.6-0.9,1.1-1.7,1.7-2.5c0.7,0.2,1.5,0.3,2.2,0.3
	c3.3,0,6.2-1.6,8-4.1h0c2.2-4.2,6.5-7,11.4-7c5,0,9.3,2.8,11.4,7H47c1.8,2.5,4.7,4.1,8,4.1c3.3,0,6.1-1.6,8-4.1h0
	c2.2-4.2,6.4-7,11.4-7c4.9,0,9.2,2.8,11.4,7h0c1.8,2.5,4.7,4.1,8,4.1c3.3,0,6.2-1.6,8-4.1h0c2.2-4.2,6.5-7,11.4-7
	c5,0,9.3,2.8,11.4,7h0c1.8,2.5,4.7,4.1,8,4.1c0.6,0,1.1-0.1,1.6-0.2c0.6,0.9,1.2,1.7,1.8,2.6C134.9,33.8,133.7,34,132.5,34z
	 M62.9,147L62.9,147c2.2-4.2,6.5-7,11.4-7c4.9,0,9.2,2.8,11.4,7h0c0,0,0,0,0,0.1c-1,0.2-2.1,0.3-3.2,0.4c-0.1-0.2-0.2-0.3-0.3-0.5h0
	c-1.8-2.5-4.7-4.1-8-4.1c-3.3,0-6.2,1.6-8,4.1h0c-0.1,0.2-0.2,0.4-0.3,0.6c-1.1-0.1-2.1-0.2-3.2-0.4C62.8,147.1,62.9,147.1,62.9,147
	z M105.1,7L105.1,7c-2.2,4.2-6.5,7-11.4,7c-4.9,0-9.2-2.8-11.4-7h0c-1.8-2.5-4.7-4.1-8-4.1c-3.3,0-6.2,1.6-8,4.1h0
	c-2.1,4.2-6.4,7-11.3,7s-9.2-2.8-11.3-7h0c-0.1-0.1-0.2-0.2-0.3-0.4c0.9-0.4,1.8-0.8,2.8-1.2c0.4,0.5,0.7,1,1,1.5H47
	c1.8,2.5,4.7,4.1,8,4.1c3.3,0,6.1-1.6,8-4.1h0c2.1-4.1,6.4-6.9,11.2-7c0.3,0,0.7,0,1,0c4.6,0.3,8.5,3,10.5,7h0
	c1.8,2.5,4.7,4.1,8,4.1c3.3,0,6.2-1.6,8-4.1h0c0.2-0.5,0.5-0.9,0.8-1.3C103.4,6.1,104.3,6.5,105.1,7C105.2,6.9,105.2,7,105.1,7z"/>
</svg>
